Enjoy this amazing Concert from the Bee Gees, thought it was about time to upload this one now that they are returning after the terrible loss of Maurice. 
File turned out quite big due to quality encoding (included the code log file for those interested) + the info below.



General
Complete name                    : K:HQ Music & StuffBee Gees - One Night Only[1997]DvDrip - HarrharrrBee Gees - One Night Only[1997]DvDrip - Harrharrr.avi
Format                           : AVI
Format/Info                      : Audio Video Interleave
Format profile                   : OpenDML
File size                        : 2.28 GiB
Duration                         : 1h 50mn
Overall bit rate                 : 2 951 Kbps
Writing application              : VirtualDubMod 1.5.4.1 (build 2178/release)
Writing library                  : VirtualDubMod build 2178/release

Video
ID                               : 0
Format                           : MPEG-4 Visual
Format profile                   : AdvancedSimple@L5
Format settings, BVOP            : Yes
Format settings, QPel            : No
Format settings, GMC             : No warppoints
Format settings, Matrix          : Custom
Codec ID                         : XVID
Codec ID/Hint                    : XviD
Duration                         : 1h 50mn
Bit rate                         : 1 431 Kbps
Width                            : 720 pixels
Height                           : 416 pixels
Display aspect ratio             : 16/9
Frame rate                       : 29.970 fps
Resolution                       : 24 bits
Colorimetry                      : 4:2:0
Scan type                        : Progressive
Bits/(Pixel*Frame)               : 0.159
Stream size                      : 1.11 GiB (49%)
Writing library                  : XviD 1.2.1 (UTC 2008-12-04)

Audio
ID                               : 1
Format                           : DTS
Format/Info                      : Digital Theater Systems
Codec ID                         : 2001
Codec ID/Info                    : Digital Theater Systems
Duration                         : 1h 50mn
Bit rate mode                    : Constant
Bit rate                         : 1 510 Kbps
Channel(s)                       : 6 channels
Channel positions                : Front: L C R, Surround: L R, LFE
Sampling rate                    : 48.0 KHz
Resolution                       : 20 bits
Stream size                      : 1.17 GiB (51%)
Alignment                        : Split accross interleaves
Interleave, duration             : 96 ms (2.88 video frames)
Interleave, preload duration     : 96 ms
Language                         : English

To the best group ever <3